<svg version="1.1" id="Layer_1" xmlns="http://www.w3.org/2000/svg" xmlns:xlink="http://www.w3.org/1999/xlink" x="0px" y="0px"
	 width="100%" viewBox="0 0 171 62" enable-background="new 0 0 171 62" xml:space="preserve">
<path fill="#FCFCFC" opacity="1.000000" stroke="none" 
	d="
M136.000000,63.000000 
	C90.666679,63.000000 45.833355,63.000000 1.000024,63.000000 
	C1.000016,42.333347 1.000016,21.666698 1.000008,1.000035 
	C57.999969,1.000023 114.999939,1.000023 171.999939,1.000012 
	C171.999954,21.666632 171.999954,42.333263 171.999969,62.999947 
	C160.166672,63.000000 148.333328,63.000000 136.000000,63.000000 
M92.161201,38.689667 
	C90.295616,43.978287 88.430031,49.266903 86.497665,54.744823 
	C90.297058,54.744823 93.705040,54.744823 97.195663,54.744823 
	C98.378807,51.322659 99.492226,48.102177 100.544807,45.057648 
	C105.951233,45.057648 111.263771,44.030075 115.756531,45.503006 
	C117.914421,46.210464 118.523491,51.642132 119.795578,54.837921 
	C123.335129,54.837921 126.627930,54.837921 130.473862,54.837921 
	C125.128433,39.731522 119.897827,24.949594 114.689125,10.229556 
	C110.496841,10.229556 106.550095,10.229556 102.568916,10.229556 
	C99.163216,19.612165 95.829269,28.797071 92.161201,38.689667 
M83.484909,49.135826 
	C78.848503,36.090481 74.212097,23.045134 69.638855,10.177506 
	C65.360626,10.177506 61.567841,10.177506 57.575596,10.177506 
	C52.210068,25.007523 46.880665,39.737690 41.458618,54.723923 
	C45.392525,54.723923 48.774094,54.723923 52.210835,54.723923 
	C53.404320,51.272072 54.516747,48.054649 55.545677,45.078728 
	C61.000023,45.078728 66.306343,44.050846 70.791008,45.524109 
	C72.945801,46.231979 73.548737,51.663792 74.803055,54.826752 
	C78.356216,54.826752 81.637520,54.826752 85.266029,54.826752 
	C84.729782,53.006779 84.270668,51.448593 83.484909,49.135826 
M5.266548,43.974010 
	C10.082971,54.031670 18.677494,56.681362 28.921085,55.910385 
	C38.147938,55.215935 38.851234,54.277718 37.782269,44.756916 
	C30.172525,47.668491 22.565006,49.598049 16.500309,41.941334 
	C13.062353,37.600895 12.953847,28.772776 16.206007,23.916145 
	C21.824270,15.526090 29.849216,17.467003 37.819614,19.325609 
	C37.819614,16.262751 37.819614,13.351656 37.819614,10.535006 
	C25.238041,7.452717 15.725600,9.251938 9.666332,16.107870 
	C2.580483,24.125357 1.856306,33.387531 5.266548,43.974010 
M167.163940,12.807665 
	C167.278412,8.654959 163.666672,9.698672 161.708344,9.415276 
	C151.726013,7.970701 142.562912,9.811937 136.606277,18.789183 
	C130.803726,27.534184 130.475449,37.082371 135.577591,46.198029 
	C140.537842,55.060223 149.217285,57.018112 158.472778,55.752140 
	C168.522125,54.377594 167.625839,54.879337 166.725601,44.782822 
	C159.301544,47.557453 151.874268,49.616852 145.783737,42.260056 
	C142.136215,37.854176 141.815598,28.887146 145.213806,23.866566 
	C150.837509,15.558020 158.859787,17.452929 167.152908,19.403490 
	C167.152908,17.340839 167.152908,15.536057 167.163940,12.807665 
z"/>
<path fill="#070707" opacity="1.000000" stroke="none" 
	d="
M92.328262,38.335823 
	C95.829269,28.797071 99.163216,19.612165 102.568916,10.229556 
	C106.550095,10.229556 110.496841,10.229556 114.689125,10.229556 
	C119.897827,24.949594 125.128433,39.731522 130.473862,54.837921 
	C126.627930,54.837921 123.335129,54.837921 119.795578,54.837921 
	C118.523491,51.642132 117.914421,46.210464 115.756531,45.503006 
	C111.263771,44.030075 105.951233,45.057648 100.544807,45.057648 
	C99.492226,48.102177 98.378807,51.322659 97.195663,54.744823 
	C93.705040,54.744823 90.297058,54.744823 86.497665,54.744823 
	C88.430031,49.266903 90.295616,43.978287 92.328262,38.335823 
M108.487717,21.014236 
	C106.476746,26.159332 104.465782,31.304428 102.297691,36.851532 
	C106.611404,36.851532 110.079247,36.851532 113.945305,36.851532 
	C112.260956,31.623539 110.643768,26.604013 108.487717,21.014236 
z"/>
<path fill="#070707" opacity="1.000000" stroke="none" 
	d="
M83.648232,49.513115 
	C84.270668,51.448593 84.729782,53.006779 85.266029,54.826752 
	C81.637520,54.826752 78.356216,54.826752 74.803055,54.826752 
	C73.548737,51.663792 72.945801,46.231979 70.791008,45.524109 
	C66.306343,44.050846 61.000023,45.078728 55.545677,45.078728 
	C54.516747,48.054649 53.404320,51.272072 52.210835,54.723923 
	C48.774094,54.723923 45.392525,54.723923 41.458618,54.723923 
	C46.880665,39.737690 52.210068,25.007523 57.575596,10.177506 
	C61.567841,10.177506 65.360626,10.177506 69.638855,10.177506 
	C74.212097,23.045134 78.848503,36.090481 83.648232,49.513115 
M67.390060,32.058384 
	C66.201012,28.351778 65.011963,24.645172 63.822914,20.938564 
	C63.480793,20.934801 63.138672,20.931036 62.796547,20.927271 
	C61.117393,26.144886 59.438236,31.362499 57.680298,36.824921 
	C61.720150,36.824921 65.154442,36.824921 68.746490,36.824921 
	C68.373306,35.337643 68.052925,34.060799 67.390060,32.058384 
z"/>
<path fill="#080808" opacity="1.000000" stroke="none" 
	d="
M5.143070,43.606831 
	C1.856306,33.387531 2.580483,24.125357 9.666332,16.107870 
	C15.725600,9.251938 25.238041,7.452717 37.819614,10.535006 
	C37.819614,13.351656 37.819614,16.262751 37.819614,19.325609 
	C29.849216,17.467003 21.824270,15.526090 16.206007,23.916145 
	C12.953847,28.772776 13.062353,37.600895 16.500309,41.941334 
	C22.565006,49.598049 30.172525,47.668491 37.782269,44.756916 
	C38.851234,54.277718 38.147938,55.215935 28.921085,55.910385 
	C18.677494,56.681362 10.082971,54.031670 5.143070,43.606831 
z"/>
<path fill="#080808" opacity="1.000000" stroke="none" 
	d="
M167.158417,13.269470 
	C167.152908,15.536057 167.152908,17.340839 167.152908,19.403490 
	C158.859787,17.452929 150.837509,15.558020 145.213806,23.866566 
	C141.815598,28.887146 142.136215,37.854176 145.783737,42.260056 
	C151.874268,49.616852 159.301544,47.557453 166.725601,44.782822 
	C167.625839,54.879337 168.522125,54.377594 158.472778,55.752140 
	C149.217285,57.018112 140.537842,55.060223 135.577591,46.198029 
	C130.475449,37.082371 130.803726,27.534184 136.606277,18.789183 
	C142.562912,9.811937 151.726013,7.970701 161.708344,9.415276 
	C163.666672,9.698672 167.278412,8.654959 167.158417,13.269470 
z"/>
<path fill="#F4F4F4" opacity="1.000000" stroke="none" 
	d="
M108.757156,21.299362 
	C110.643768,26.604013 112.260956,31.623539 113.945305,36.851532 
	C110.079247,36.851532 106.611404,36.851532 102.297691,36.851532 
	C104.465782,31.304428 106.476746,26.159332 108.757156,21.299362 
z"/>
<path fill="#F4F4F4" opacity="1.000000" stroke="none" 
	d="
M67.561295,32.421169 
	C68.052925,34.060799 68.373306,35.337643 68.746490,36.824921 
	C65.154442,36.824921 61.720150,36.824921 57.680298,36.824921 
	C59.438236,31.362499 61.117393,26.144886 62.796547,20.927271 
	C63.138672,20.931036 63.480793,20.934801 63.822914,20.938564 
	C65.011963,24.645172 66.201012,28.351778 67.561295,32.421169 
z"/>
</svg>